HIERARCHY
ROOT hip
{
  OFFSET 0 0 0
  CHANNELS 6 Xposition Yposition Zposition Zrotation Yrotation Xrotation
  JOINT abdomen
  {
    OFFSET 0 20.6881 -0.73152
    CHANNELS 3 Zrotation Xrotation Yrotation
    JOINT chest
    {
      OFFSET 0 11.7043 -0.48768
      CHANNELS 3 Zrotation Xrotation Yrotation
      JOINT neck
      {
        OFFSET 0 22.1894 -2.19456
        CHANNELS 3 Zrotation Xrotation Yrotation
        JOINT head
        {
          OFFSET -0.24384 7.07133 1.2192
          CHANNELS 3 Zrotation Xrotation Yrotation
          JOINT leftEye
          {
            OFFSET 4.14528 8.04674 8.04672
            CHANNELS 3 Zrotation Xrotation Yrotation
            End Site
            {
              OFFSET 1 0 0
            }
          }
          JOINT rightEye
          {
            OFFSET -3.6576 8.04674 8.04672
            CHANNELS 3 Zrotation Xrotation Yrotation
            End Site
            {
              OFFSET 1 0 0
            }
          }
        }
      }
      JOINT rCollar
      {
        OFFSET -2.68224 19.2634 -4.8768
        CHANNELS 3 Zrotation Xrotation Yrotation
        JOINT rShldr
        {
          OFFSET -8.77824 -1.95073 1.46304
          CHANNELS 3 Zrotation Xrotation Yrotation
          JOINT rForeArm
          {
            OFFSET -28.1742 -1.7115 0.48768
            CHANNELS 3 Zrotation Xrotation Yrotation
            JOINT rHand
            {
              OFFSET -22.5879 0.773209 7.07136
              CHANNELS 3 Zrotation Xrotation Yrotation
              JOINT rThumb1
              {
                OFFSET -1.2192 -0.487915 3.41376
                CHANNELS 3 Zrotation Xrotation Yrotation
                JOINT rThumb2
                {
                  OFFSET -3.37035 -0.52449 3.41376
                  CHANNELS 3 Zrotation Xrotation Yrotation
                  End Site
                  {
                    OFFSET -1.78271 -1.18214 1.43049
                  }
                }
              }
              JOINT rIndex1
              {
                OFFSET -7.75947 0.938293 5.60832
                CHANNELS 3 Zrotation Xrotation Yrotation
                JOINT rIndex2
                {
                  OFFSET -2.54057 -0.884171 1.56538
                  CHANNELS 3 Zrotation Xrotation Yrotation
                  End Site
                  {
                    OFFSET -1.62519 -0.234802 1.16502
                  }
                }
              }
              JOINT rMid1
              {
                OFFSET -8.24714 1.18213 3.41376
                CHANNELS 3 Zrotation Xrotation Yrotation
                JOINT rMid2
                {
                  OFFSET -3.10165 -0.590103 1.0647
                  CHANNELS 3 Zrotation Xrotation Yrotation
                  End Site
                  {
                    OFFSET -2.48547 -0.328903 0.83742
                  }
                }
              }
              JOINT rRing1
              {
                OFFSET -8.82822 0.546677 1.51678
                CHANNELS 3 Zrotation Xrotation Yrotation
                JOINT rRing2
                {
                  OFFSET -2.60934 -0.819778 -0.0198488
                  CHANNELS 3 Zrotation Xrotation Yrotation
                  End Site
                  {
                    OFFSET -2.33842 -0.294052 0.168128
                  }
                }
              }
              JOINT rPinky1
              {
                OFFSET -8.27202 -0.0477905 -0.4584
                CHANNELS 3 Zrotation Xrotation Yrotation
                JOINT rPinky2
                {
                  OFFSET -1.82734 -0.647385 -0.700984
                  CHANNELS 3 Zrotation Xrotation Yrotation
                  End Site
                  {
                    OFFSET -1.69225 -0.51767 -0.607171
                  }
                }
              }
            }
          }
        }
      }
      JOINT lCollar
      {
        OFFSET 2.68224 19.2634 -4.8768
        CHANNELS 3 Zrotation Xrotation Yrotation
        JOINT lShldr
        {
          OFFSET 8.77824 -1.95073 1.46304
          CHANNELS 3 Zrotation Xrotation Yrotation
          JOINT lForeArm
          {
            OFFSET 28.1742 -1.7115 0.48768
            CHANNELS 3 Zrotation Xrotation Yrotation
            JOINT lHand
            {
              OFFSET 22.5879 0.773209 7.07136
              CHANNELS 3 Zrotation Xrotation Yrotation
              JOINT lThumb1
              {
                OFFSET 1.2192 -0.487915 3.41376
                CHANNELS 3 Zrotation Xrotation Yrotation
                JOINT lThumb2
                {
                  OFFSET 3.37035 -0.52449 3.41376
                  CHANNELS 3 Zrotation Xrotation Yrotation
                  End Site
                  {
                    OFFSET 1.78271 -1.18214 1.43049
                  }
                }
              }
              JOINT lIndex1
              {
                OFFSET 7.75947 0.938293 5.60832
                CHANNELS 3 Zrotation Xrotation Yrotation
                JOINT lIndex2
                {
                  OFFSET 2.54057 -0.884171 1.56538
                  CHANNELS 3 Zrotation Xrotation Yrotation
                  End Site
                  {
                    OFFSET 1.62519 -0.234802 1.16502
                  }
                }
              }
              JOINT lMid1
              {
                OFFSET 8.24714 1.18213 3.41376
                CHANNELS 3 Zrotation Xrotation Yrotation
                JOINT lMid2
                {
                  OFFSET 3.10165 -0.590103 1.0647
                  CHANNELS 3 Zrotation Xrotation Yrotation
                  End Site
                  {
                    OFFSET 2.48547 -0.328903 0.83742
                  }
                }
              }
              JOINT lRing1
              {
                OFFSET 8.82822 0.546677 1.51678
                CHANNELS 3 Zrotation Xrotation Yrotation
                JOINT lRing2
                {
                  OFFSET 2.60934 -0.819778 -0.0198488
                  CHANNELS 3 Zrotation Xrotation Yrotation
                  End Site
                  {
                    OFFSET 2.33842 -0.294052 0.168128
                  }
                }
              }
              JOINT lPinky1
              {
                OFFSET 8.27202 -0.0477905 -0.4584
                CHANNELS 3 Zrotation Xrotation Yrotation
                JOINT lPinky2
                {
                  OFFSET 1.82734 -0.647385 -0.700984
                  CHANNELS 3 Zrotation Xrotation Yrotation
                  End Site
                  {
                    OFFSET 1.69225 -0.51767 -0.607171
                  }
                }
              }
            }
          }
        }
      }
    }
  }
  JOINT rButtock
  {
    OFFSET -8.77824 4.35084 1.2192
    CHANNELS 3 Zrotation Xrotation Yrotation
    JOINT rThigh
    {
      OFFSET 0 -1.70687 -2.19456
      CHANNELS 3 Zrotation Xrotation Yrotation
      JOINT rShin
      {
        OFFSET 0 -36.8199 0.73152
        CHANNELS 3 Zrotation Xrotation Yrotation
        JOINT rFoot
        {
          OFFSET 0.73152 -45.1104 -5.12064
          CHANNELS 3 Zrotation Xrotation Yrotation
          End Site
          {
            OFFSET -1.1221 -3.69964 12.103
          }
        }
      }
    }
  }
  JOINT lButtock
  {
    OFFSET 8.77824 4.35084 1.2192
    CHANNELS 3 Zrotation Xrotation Yrotation
    JOINT lThigh
    {
      OFFSET 0 -1.70687 -2.19456
      CHANNELS 3 Zrotation Xrotation Yrotation
      JOINT lShin
      {
        OFFSET 0 -36.8199 0.73152
        CHANNELS 3 Zrotation Xrotation Yrotation
        JOINT lFoot
        {
          OFFSET -0.73152 -45.1104 -5.12064
          CHANNELS 3 Zrotation Xrotation Yrotation
          End Site
          {
            OFFSET 1.1221 -3.69964 12.103
          }
        }
      }
    }
  }
}
MOTION
Frames:	5
Frame Time:	0.03333
0.0 0.0 0.0 0.0 0.0 0.0 0.0 0.0 0.0 0.0 0.0 0.0 0.0 0.0 0.0 0.0 0.0 0.0 0.0 0.0 0.0 0.0 0.0 0.0 0.0 0.0 0.0 0.0 0.0 0.0 0.0 0.0 0.0 0.0 0.0 0.0 0.0 0.0 0.0 0.0 0.0 0.0 0.0 0.0 0.0 0.0 0.0 0.0 0.0 0.0 0.0 0.0 0.0 0.0 0.0 0.0 0.0 0.0 0.0 0.0 0.0 0.0 0.0 0.0 0.0 0.0 0.0 0.0 0.0 0.0 0.0 0.0 0.0 0.0 0.0 0.0 0.0 0.0 0.0 0.0 0.0 0.0 0.0 0.0 0.0 0.0 0.0 0.0 0.0 0.0 0.0 0.0 0.0 0.0 0.0 0.0 0.0 0.0 0.0 0.0 0.0 0.0 0.0 0.0 0.0 0.0 0.0 0.0 0.0 0.0 0.0 0.0 0.0 0.0 0.0 0.0 0.0 0.0 0.0 0.0 0.0 0.0 0.0 0.0 0.0 0.0 0.0 0.0 0.0 0.0 0.0 0.0
-0.5032 52.62520000000001 3.0594 -7.300925 -41.12503 21.263693 -1.429008 10.562355 -1.089272 4.524453 -8.979099 10.420977 -9.567239 28.376272 -113.237759 48.227082 29.702727 100.566414 0.000401 -0.0 -0.003268 0.000555 -0.0 -1e-05 -4.218045 19.587081 5.162482 -74.978675 12.077966 112.713429 90.276477 -1.340061 -158.4788 -60.623159 53.57662 39.852502 1.020407 -1.009305 -0.147432 0.475997 -0.893614 -1.088932 -26.263045 29.836882 19.135175 0.028991 11.116566 0.994934 -15.438447 32.985052 11.308671 -156.823034 13.152256 140.4417 -0.147162 -6.079117 -1.918866 -2.723848 58.626245 15.764968 3.519632 9.97365 3.198937 -157.456313 47.868022 -149.586086 151.47495 16.765935 -156.784332 54.28366 1.35446 28.943758 -172.799271 -0.529002 154.706425 17.331738 61.527423 -9.878896 6.981765 6.718402 -1.471582 129.023022 -27.50649 -111.861698 12.080968 16.803415 -7.960927 -10.414042 -1.21477 0.863289 5.20653 13.797821 -3.29575 -13.36758 -30.522155 1.384354 145.109872 3.54008 -179.758326 152.589443 -25.479306 175.260751 126.39405 -27.137922 124.124557 154.564389 36.526859 146.3231 -179.996993 75.751179 -0.003438 152.239055 65.00608 -79.305549 -71.804189 -17.228877 56.964991 102.09471 2.467548 -18.652272 179.98685 75.749713 0.010595 -155.413822 -2.322496 -86.403685 -89.194366 -0.204046 146.256279 83.316802 -47.383674 -13.875697
-0.8861000000000001 52.7906 4.9661 -5.237565 -40.309083 19.150148 -2.676219 11.470762 -21.536237 6.510152 -7.079333 30.21062 -11.495532 22.400734 -75.453887 49.173916 2.35295 73.718962 -0.000753 0.0 -0.004353 -0.000118 -0.0 0.000328 -6.854919 27.947283 8.139339 -95.448252 2.60201 102.355024 166.131334 -34.336964 -111.029272 -14.084834 -7.703225 -3.365655 -2.000879 1.962526 0.340484 -88.993969 19.443828 81.844363 -154.784851 -23.542947 122.059398 153.20783 -65.031938 93.369072 -3.980683 10.80877 2.455393 -157.995462 10.336953 141.07612 0.000381 0.214797 0.068472 -155.997754 -10.886332 173.154396 11.294086 37.650307 9.618851 118.051681 86.856083 -79.321678 151.624308 16.175505 -156.960946 61.136045 -6.425123 32.133997 13.54486 -1.79758 56.258982 -114.865121 -61.415116 -104.33873 -0.061793 -0.05973 0.009442 111.698399 1.518903 -101.511567 -174.048618 -63.272364 -113.051153 -5.003408 18.624202 4.089094 158.307196 0.432945 -142.027027 -4.210905 -2.829839 -0.005676 145.023439 7.371097 -178.544873 -10.550974 12.795368 7.434327 13.018052 -25.057137 12.382839 132.648951 -22.479417 131.154333 -179.98354 75.749923 -0.012465 153.719647 60.405165 33.636839 85.360405 71.296847 39.912694 53.472516 55.706065 -143.396506 -0.005064 -0.000886 -0.002293 54.16643 -64.369371 94.672887 87.164953 63.965721 -171.013112 170.699867 16.479069 -112.729767
-1.3582 52.963800000000006 7.1236999999999995 -2.916128 -39.549596 16.573735 -6.493043 12.821263 18.080435 1.948385 -10.286159 -9.956845 -10.675955 19.105728 -55.821888 44.363072 -11.683096 58.849173 0.004769 -0.0 -0.002006 -0.000929 0.0 -0.001431 1.374558 -9.178877 -1.929074 -111.504039 -23.853706 129.182782 -155.102177 -17.991997 -90.381603 -5.181099 -38.723795 -7.780383 9.660563 -9.651872 -0.678812 -3.32725 0.989083 -3.816827 -141.104378 0.835447 116.427483 16.125984 -13.948961 -10.389477 -9.607738 23.241811 6.560025 -166.534026 -15.14555 144.118774 -0.061239 -3.504566 -1.102641 1.143613 51.234211 11.460789 11.33211 37.787264 9.639954 10.05709 26.83321 6.013095 -1.853746 -12.92317 2.664702 82.907445 -1.379944 -134.477654 -26.481239 48.942431 74.824656 -159.837836 -24.403886 -145.225183 -26.154458 -25.024863 -1.881948 146.528626 -54.836103 -135.018666 -5.465228 -9.355674 2.767705 92.834349 45.899134 -73.843668 -21.227102 -57.49863 0.173398 160.18 4.877765 -141.965018 145.120324 2.469793 179.906501 153.904201 -16.170288 176.937815 159.080232 63.238316 150.99346 152.258326 23.964486 144.611841 -179.98965 75.749888 -0.00673 157.178152 53.348804 108.616219 100.233139 -7.095544 54.484843 -106.914364 -10.291512 176.111445 -0.001276 -0.00082 -0.000303 45.104115 -64.210109 104.675639 83.775644 44.802567 -139.581042 156.152163 -66.208813 -114.833574
-1.9755000000000003 53.1222 9.4603 -0.500159 -38.736093 13.790714 -5.578464 12.433527 -81.483021 7.908475 0.711579 88.472126 -10.729956 19.200037 -56.649702 44.22697 -11.176452 58.806941 0.00467 0.0 0.000934 -0.001032 -0.0 0.001491 -0.907983 5.118491 1.180809 75.356433 4.877161 66.714245 -25.774564 29.642954 105.192784 -3.561115 -40.237489 -7.340594 160.222113 -33.54348 83.251427 -1.42846 -67.674407 -9.309541 -156.36213 -26.451782 122.351313 150.063385 -66.106718 90.434274 -154.838683 9.887332 139.895825 15.288259 -34.923379 -0.62693 -144.992124 -5.49206 -177.396176 -154.56311 -4.535556 -178.658779 3.968931 11.368775 3.601835 18.597438 56.435789 9.531031 147.832719 28.64859 -152.654043 -130.138057 -22.05946 156.720778 178.850455 1.656108 -120.316209 -149.464435 -41.339094 -136.454374 176.025034 -13.653541 -89.743351 121.918893 15.584997 -58.245564 150.99048 -16.48613 -121.013981 23.998214 45.752177 -12.423813 112.746701 55.981862 -103.172133 24.638971 48.608948 -20.465965 0.171731 -6.634008 2.098938 -8.816065 20.941863 -2.945698 24.381178 -37.172915 23.463938 178.099022 80.712891 139.154569 0.019806 -0.000383 0.015062 -13.975393 -25.050262 20.930505 117.63123 63.127243 162.042857 5.394678 -74.044831 100.361357 -0.001509 -0.000385 -0.001516 35.653839 -63.33173 119.644307 85.97578 22.979677 -151.682831 164.400305 31.821432 -87.041207
